<svg viewBox="0 0 341 94.23377962129015" preserveAspectRatio="xMidYMid meet" class="css-1y5supu" id="gdfcbabc"><defs id="SvgjsDefs3758"><linearGradient id="SvgjsLinearGradient3765"><stop id="SvgjsStop3766" stop-color="#ef4136" offset="0"></stop><stop id="SvgjsStop3767" stop-color="#fbb040" offset="1"></stop></linearGradient><linearGradient id="SvgjsLinearGradient3768"><stop id="SvgjsStop3769" stop-color="#ef4136" offset="0"></stop><stop id="SvgjsStop3770" stop-color="#fbb040" offset="1"></stop></linearGradient></defs><g id="SvgjsG3759" featurekey="symbolFeature-0" transform="matrix(2.8588096342483302,0,0,2.8588096342483302,0,1.2852379707465538)" fill="url(#SvgjsLinearGradient3765)"><path xmlns="http://www.w3.org/2000/svg" d="M1 0c-.552 0-1 .448-1 1s.448 1 1 1 1-.448 1-1h2c.039 0 .078.019.094.031v.031l.031.063 4.281 16.375v.031c-.005.268-.044.571-.094.719l-1.438 3.813c.206-.039.409-.063.625-.063.162 0 .312.009.469.031l1.313-3.469c.084-.251.116-.493.125-.719.179.092.381.156.594.156h18c.6 0 1.087-.5 1.188-1l2.625-13c.1-.6-.212-1-.813-1h-25c-.138 0-.24.023-.344.063l-.563-2.188h-.063c-.044-.251-.138-.489-.313-.625-.21-.163-.458-.25-.719-.25h-3zm6.5 23c-1.381 0-2.5 1.119-2.5 2.5s1.119 2.5 2.5 2.5 2.5-1.119 2.5-2.5-1.119-2.5-2.5-2.5zm19 0c-1.381 0-2.5 1.119-2.5 2.5s1.119 2.5 2.5 2.5 2.5-1.119 2.5-2.5-1.119-2.5-2.5-2.5zm-15.875 1c.155.314.29.645.344 1h11.969c.054-.355.188-.686.344-1h-12.656z" transform="translate(0 2)"></path></g><g id="SvgjsG3760" featurekey="nameFeature-0" transform="matrix(1.9541079030483348,0,0,1.9541079030483348,111.00000186358253,-19.218161178821276)" fill="#ffffff"><path d="M21.44 10.32 c0.8 1.16 4.04 21.24 5.32 29.68 c-3.2 0.24 -7.76 0.2 -10.52 0 c-0.32 -2.4 -0.56 -4.92 -0.84 -7.4 c-1.24 0.04 -2.52 0.04 -3.52 -0.04 c-0.52 2.48 -0.92 5.08 -1.52 7.6 c-3.92 0.08 -8.24 -0.08 -10.36 -0.28 c1.88 -10 4.12 -19.6 6.16 -29.44 c4.76 -0.28 11.76 -0.28 15.28 -0.12 z M11.6 26 l3.4 0 c-0.24 -2.44 -0.48 -4.44 -1 -6.72 l-0.68 0 c-0.56 1.6 -0.96 3 -1.72 6.72 z M49.84 39.6 c-1.56 0.4 -6.52 0.6 -9.08 0.44 c-0.12 0 -0.2 -0.88 -0.24 -2.24 c-1.52 1.56 -4.44 3.4 -8.28 2.36 c-2.48 -0.68 -3.44 -3.16 -3.8 -5.2 c-1.92 -11 3.32 -16.4 10.68 -17.48 c-0.12 -1.2 -0.24 -4.92 -0.08 -7.48 c1.6 -0.16 7.96 -0.32 10.4 0.12 c0.16 9.44 0.28 19.8 0.4 29.48 z M38.08 32.64 c1.24 0 1.84 -0.72 1.84 -0.76 s-0.12 -5.16 -0.16 -5.24 c-4.36 -0.64 -5.36 6.04 -1.68 6 z M65.16 16.44 c2.56 -0.28 6.08 -0.12 7.92 0.04 c-1.12 8.28 -2.56 16.24 -4.52 23.68 c-4.04 0.12 -9.68 0.08 -12.84 -0.44 c-1.56 -7.44 -3.32 -14.72 -4.08 -22.96 c1.88 -0.12 5.52 -0.52 9.32 -0.44 c0.16 3.44 0.84 10.44 1.2 14.92 l1 0 c0.48 -4.56 0.56 -8.2 2 -14.8 z M91.36 30.2 c1.16 1.32 2.92 3.84 3.68 4.96 c0 0 -3.08 5.16 -9.68 5.16 c-3.76 0 -7.48 -1.48 -9.08 -4.2 c-1.48 -2.52 -2.08 -5.88 -1.88 -9.08 c0.24 -4.32 1.6 -11.12 10.12 -11.12 c9.64 0 9.44 8.96 9.44 12.64 c0 0 -5.04 0.72 -11.16 1.36 c0 1.68 1.36 2.48 2.6 2.56 c2.48 0.16 4.84 -1.24 5.96 -2.28 z M86.44 24.32 c0.12 -1.68 -0.88 -2.8 -1.92 -2.8 c-1.52 0 -2.24 1.24 -2.2 3.08 c2.36 -0.12 2.24 -0.12 4.12 -0.28 z M104.92 16.08 c0.12 1.6 0.04 2.8 0.24 3.92 c1.32 -2.2 4.76 -4.96 8.92 -3.44 c5.04 1.84 3.4 16.92 3.24 23.28 c-3.48 0.36 -6.08 0.2 -9.2 0.2 c0 -11.4 0.88 -15.64 -1.12 -15.64 c-2.12 -0.2 -2.16 5.28 -2.16 15.64 c-2 0.08 -5.28 0.16 -8.44 -0.04 c-0.28 -8.44 -0.16 -15.2 -0.28 -23.52 c2.6 -0.28 6.32 -0.48 8.8 -0.4 z"></path></g><g id="SvgjsG3761" featurekey="sloganFeature-0" transform="matrix(0.9352403563862841,0,0,0.9352403563862841,110.07109692058955,75.43602873763459)" fill="url(#SvgjsLinearGradient3768)"><path d="M4.62 13.879999999999999 l0.02 5.84 c0 0.22 0.2 0.3 0.36 0.3 l1.84 0 c0.34 0 0.34 -0.3 0.34 -0.44 c0 -1.88 0 -3.9 0.08 -5.8 c0 -0.32 0.04 -0.62 0.2 -0.92 c0.18 -0.3 2.84 -6.24 3.14 -7.22 c0.04 -0.14 0.12 -0.38 -0.02 -0.5 c-0.24 -0.22 -1.2 -0.12 -1.78 -0.12 c-0.36 0 -0.58 0.14 -0.74 0.5 c-0.68 1.58 -1.38 3.14 -2.08 4.72 c-0.06 0.14 -0.14 0.14 -0.24 0 c-0.22 -0.36 -1.64 -3.88 -1.86 -4.66 c-0.04 -0.1 -0.06 -0.2 -0.12 -0.28 c-0.28 -0.32 -0.74 -0.28 -1.12 -0.28 c-0.5 0 -0.86 0.02 -1.34 0.02 c-0.32 0 -0.34 0.3 -0.28 0.56 c0.02 0.1 0.08 0.2 0.12 0.28 c0.76 1.44 2.9 6.2 3.28 7.1 c0.2 0.42 0.18 0.44 0.2 0.9 z M25.426 8.68 c0.42 1.24 0.52 2.58 0.52 3.9 c0 1.1 -0.2 2.16 -0.48 3.22 c-0.36 1.26 -0.96 2.4 -2.04 3.14 c-0.8 0.58 -1.64 0.96 -2.62 1.06 c-0.14 0 -0.26 0.02 -0.4 0.02 c-0.12 0 -0.24 -0.02 -0.38 -0.02 c-0.98 -0.1 -1.82 -0.48 -2.64 -1.06 c-1.06 -0.74 -1.68 -1.88 -2.02 -3.14 c-0.3 -1.06 -0.48 -2.12 -0.48 -3.22 c0 -1.32 0.1 -2.66 0.52 -3.9 c0.74 -2.14 2.78 -3.66 5 -3.7 c2.22 0.04 4.26 1.56 5.02 3.7 z M23.485999999999997 14.04 c0.2 -1.22 0.12 -2.46 -0.12 -3.68 c-0.24 -1.1 -0.72 -2.18 -1.64 -2.84 c-0.16 -0.12 -0.34 -0.22 -0.52 -0.28 c-0.26 -0.12 -0.54 -0.16 -0.8 -0.16 s-0.52 0.04 -0.78 0.16 c-0.2 0.06 -0.36 0.16 -0.52 0.28 c-0.94 0.66 -1.42 1.74 -1.64 2.84 c-0.24 1.22 -0.32 2.46 -0.12 3.68 c0.2 1.1 0.6 2.58 1.64 3.14 c0.44 0.24 0.92 0.4 1.42 0.42 c0.5 -0.02 1 -0.18 1.44 -0.42 c1.04 -0.56 1.44 -2.04 1.64 -3.14 z M30.172 8.28 c0 2.02 0.02 4.06 0.06 6.06 c0.02 1.22 0 2.6 0.58 3.72 c0.74 1.44 2.38 2.08 3.96 1.98 c1.08 -0.08 2.08 -0.36 2.86 -1.16 c1.32 -1.42 1.06 -3.64 1.08 -5.46 c0.04 -2.62 0.1 -5.06 0.1 -7.7 c0 -0.44 -0.14 -0.68 -0.58 -0.7 c-0.54 -0.02 -1.08 0 -1.62 0.04 c-0.22 0 -0.4 0.2 -0.4 0.44 c0.02 1.92 0.06 3.86 0.04 5.8 c-0.02 1.66 0.2 3.5 -0.42 5.08 c-0.24 0.58 -0.78 1.02 -1.42 1.02 c-1.6 -0.04 -1.54 -1.94 -1.6 -3.06 c-0.12 -2.44 0.06 -4.94 0.12 -7.38 c0 -0.46 0 -0.92 0.02 -1.38 c0.02 -0.24 0.06 -0.54 -0.26 -0.56 l-0.36 0 c-0.5 0.04 -1 -0.02 -1.5 0 c-0.48 0.04 -0.64 0.18 -0.64 0.66 c0 0.86 -0.02 1.74 -0.02 2.6 z M45.517999999999994 18.5 c0 -0.52 0 -3.8 0.02 -4.06 c0.02 -0.06 0.06 -0.18 0.14 -0.18 s0.12 0.04 0.14 0.1 c0.8 1.56 1.5 3.12 2.22 4.64 c0.1 0.22 0.32 0.86 0.38 0.92 c0.08 0.12 0.22 0.08 0.34 0.08 l2.2 0.02 c0.26 0 0.32 -0.16 0.26 -0.38 c-0.16 -0.6 -1.3 -2.72 -1.56 -3.24 c-0.18 -0.4 -1.38 -2.72 -1.42 -2.9 c-0.04 -0.08 0.26 -0.22 0.3 -0.28 c0.96 -0.86 1.82 -1.74 2 -3.08 c0.2 -1.32 -0.1 -2.76 -0.96 -3.82 c-0.66 -0.78 -1.52 -1.24 -2.54 -1.3 c-0.62 -0.04 -1.22 0.02 -1.84 0 c-0.54 -0.02 -0.92 -0.02 -1.6 -0.02 c-0.32 0 -0.52 0.18 -0.54 0.52 l0 0.24 c-0.04 1.54 0 3.08 0.02 4.6 c0 2.32 -0.04 8.44 -0.04 9.32 c0 0.26 0.04 0.32 0.28 0.32 c0.14 0 0.3 0.02 0.44 0.02 c0.56 0 0.9 -0.02 1.48 -0.02 c0.44 0 0.28 -0.72 0.28 -1.5 z M45.517999999999994 10.7 l0.02 -2.02 c0.02 -0.3 -0.08 -0.9 0.2 -1.12 c0.38 -0.28 1.16 0 1.5 0.24 c1 0.68 0.92 2.36 0.38 3.3 c-0.26 0.44 -0.7 0.7 -1.2 0.84 c-0.3 0.08 -0.86 0.18 -0.88 -0.3 c0 -0.32 -0.02 -0.94 -0.02 -0.94 z M73.22999999999999 8.68 c0.42 1.24 0.52 2.58 0.52 3.9 c0 1.1 -0.2 2.16 -0.48 3.22 c-0.36 1.26 -0.96 2.4 -2.04 3.14 c-0.8 0.58 -1.64 0.96 -2.62 1.06 c-0.14 0 -0.26 0.02 -0.4 0.02 c-0.12 0 -0.24 -0.02 -0.38 -0.02 c-0.98 -0.1 -1.82 -0.48 -2.64 -1.06 c-1.06 -0.74 -1.68 -1.88 -2.02 -3.14 c-0.3 -1.06 -0.48 -2.12 -0.48 -3.22 c0 -1.32 0.1 -2.66 0.52 -3.9 c0.74 -2.14 2.78 -3.66 5 -3.7 c2.22 0.04 4.26 1.56 5.02 3.7 z M71.28999999999999 14.04 c0.2 -1.22 0.12 -2.46 -0.12 -3.68 c-0.24 -1.1 -0.72 -2.18 -1.64 -2.84 c-0.16 -0.12 -0.34 -0.22 -0.52 -0.28 c-0.26 -0.12 -0.54 -0.16 -0.8 -0.16 s-0.52 0.04 -0.78 0.16 c-0.2 0.06 -0.36 0.16 -0.52 0.28 c-0.94 0.66 -1.42 1.74 -1.64 2.84 c-0.24 1.22 -0.32 2.46 -0.12 3.68 c0.2 1.1 0.6 2.58 1.64 3.14 c0.44 0.24 0.92 0.4 1.42 0.42 c0.5 -0.02 1 -0.18 1.44 -0.42 c1.04 -0.56 1.44 -2.04 1.64 -3.14 z M86.496 5.460000000000001 c0.06 0.28 0.02 13.6 0.02 13.94 c0 0.6 -0.22 0.58 -0.62 0.58 c-0.6 0 -1.44 0.1 -1.62 -0.1 c-0.16 -0.14 -3.12 -7.28 -3.54 -8.18 c-0.04 -0.08 -0.14 -0.28 -0.22 -0.24 c-0.1 0.04 -0.06 0.18 -0.06 0.26 c-0.02 0.7 0.1 6.74 0.1 7.7 c0 0.48 -0.02 0.56 -0.42 0.56 l-1 0 c-0.26 0 -0.58 -0.02 -0.84 0.02 c-0.2 0 -0.3 -0.06 -0.32 -0.26 l0 -1.58 c0.04 -1.68 0 -11.64 0 -12.38 c0 -0.64 0.18 -0.76 0.82 -0.76 c0.44 -0.02 0.88 -0.02 1.32 -0.02 c0.14 0 0.22 0.02 0.3 0.2 c0.54 1.26 2.84 7.04 3.2 7.74 c0.06 0.14 0.28 0.7 0.4 0.76 l0.02 0 c0.08 -0.08 0.06 -0.48 0.06 -0.6 c0 -0.3 -0.16 -7.32 -0.16 -7.46 c0 -0.2 -0.06 -0.38 0.04 -0.52 c0.06 -0.08 0.32 -0.1 0.42 -0.12 c0.56 -0.04 1.22 0.02 1.78 0 c0.28 0 0.26 0.2 0.32 0.46 z M90.782 15.9 l-0.02 0 c0 0.5 -0.02 1.02 0 1.54 c0.02 0.64 0.06 1.28 0.1 1.92 c0 0.22 0.06 0.28 0.26 0.32 c0.42 0.1 0.82 0.12 1.24 0.12 c1.08 -0.04 2.16 0.04 3.24 0 c0.44 -0.02 0.64 0.02 1.08 -0.06 c0.4 -0.08 0.54 -0.3 0.54 -0.9 c-0.04 -0.38 -0.02 -0.54 -0.02 -1 c0 -0.66 -0.46 -0.88 -0.86 -0.86 c-0.28 0.02 -1.62 -0.02 -2.16 -0.02 c-0.9 0.02 -0.76 0.14 -0.76 -0.8 c0 -0.76 0.02 -1.74 0.02 -2.52 c0 -0.42 0.04 -0.56 0.44 -0.56 l2.5 0 c0.4 0.06 0.68 -0.22 0.68 -0.64 s0.04 -0.44 0.04 -0.86 l-0.06 -0.6 c-0.04 -0.34 -0.16 -0.46 -0.5 -0.46 c-0.22 0 -0.44 0.02 -0.66 0.04 c-0.86 0.06 -1.26 -0.06 -2.1 0 c-0.28 0 -0.32 -0.04 -0.34 -0.3 c-0.08 -0.78 0 -1.64 0.08 -2.42 c0.02 -0.32 0.1 -0.38 0.4 -0.4 l2.82 -0.02 c0.38 -0.04 0.5 -0.02 0.48 -0.4 c-0.04 -0.58 0.02 -1.18 -0.04 -1.76 c-0.04 -0.32 -0.14 -0.38 -0.5 -0.38 c-0.6 0.02 -0.74 0.02 -1.34 0.06 c-0.6 0.02 -3 0.02 -3.58 0.02 c-0.84 0 -0.9 -0.06 -0.92 0.96 c-0.04 0.8 -0.02 1.62 -0.02 2.44 c0 1.4 -0.08 6.42 -0.04 7.54 z M101.808 15.620000000000001 c0.14 0.04 0.38 0.02 1.42 0.02 c0.7 0 1.46 -0.02 2.16 -0.02 c0.76 0 0.72 -0.3 0.72 -0.7 c0.02 -0.58 0.04 -0.86 0.04 -1.44 c0 -0.38 -0.1 -0.54 -0.48 -0.54 c-1.96 0 -2.36 0.08 -3.18 0.02 c-0.28 -0.02 -0.56 0 -0.84 0.04 c-0.1 0 -0.2 0.06 -0.2 0.24 c0.04 0.64 0.04 1.26 0.06 1.92 c0.02 0.26 0.04 0.38 0.3 0.46 z M114.45400000000001 4.9 c-0.38 0.02 -0.76 0.08 -1.14 0.2 c-0.82 0.28 -1.56 0.84 -2.06 1.56 c-0.44 0.66 -0.62 1.44 -0.68 2.22 c-0.04 0.6 0.02 1.22 0.3 1.76 c0.3 0.58 0.82 1.08 1.26 1.56 c0.4 0.42 0.8 0.84 1.24 1.22 c0.4 0.38 0.86 0.68 1.26 1.08 c0.58 0.58 0.8 1.9 0.38 2.62 c-0.5 0.8 -1.68 0.92 -2.46 0.66 c-0.4 -0.14 -0.76 -0.44 -1.1 -0.68 c-0.2 -0.14 -0.44 -0.2 -0.58 0.04 c-0.08 0.12 -0.12 0.26 -0.16 0.38 c-0.14 0.5 -0.32 0.96 -0.34 1.5 c-0.02 0.62 1.16 0.8 1.6 0.9 c1.96 0.46 4.32 0.1 5.34 -1.84 c0.2 -0.4 0.34 -0.82 0.42 -1.26 c0.02 -0.16 0.04 -0.3 0.04 -0.46 c0.08 -1.28 -0.44 -2.36 -1.22 -3.32 c-0.84 -1.04 -1.9 -1.76 -2.88 -2.66 c-0.6 -0.56 -0.82 -1.44 -0.64 -2.24 c0.18 -0.86 1.16 -1.08 1.9 -0.86 c0.22 0.06 0.4 0.16 0.6 0.28 c0.12 0.06 0.24 0.14 0.4 0.14 c0.28 0.02 0.32 -0.2 0.38 -0.42 c0.14 -0.5 0.38 -0.9 0.48 -1.38 c0.1 -0.54 -0.34 -0.64 -0.78 -0.78 c-0.52 -0.14 -1.02 -0.24 -1.56 -0.22 z M124.54000000000002 17.82 c0.02 0.62 0.02 1.24 0.04 1.86 c0 0.28 0.02 0.32 0.3 0.32 l1.8 0 c0.38 0 0.3 -0.64 0.28 -0.98 l0.06 -11.2 c0 -0.3 0.1 -0.4 0.5 -0.4 l1.76 0 c0.42 0 0.32 -0.72 0.32 -1.22 c0 -0.44 0.16 -1.2 -0.32 -1.2 c-0.34 0 -3.6 0 -4.94 0.02 c-0.66 0 -1.2 -0.02 -1.86 -0.02 c-0.5 0 -0.48 0.4 -0.48 1.28 c0 0.56 -0.02 1.12 0.46 1.12 c0.28 0 1.42 0 1.74 0.02 c0.2 0 0.34 0.06 0.38 0.28 c0 0.06 0.02 0.12 0.02 0.18 c0 1.44 -0.1 8.14 -0.06 9.94 z M144.386 8.68 c0.42 1.24 0.52 2.58 0.52 3.9 c0 1.1 -0.2 2.16 -0.48 3.22 c-0.36 1.26 -0.96 2.4 -2.04 3.14 c-0.8 0.58 -1.64 0.96 -2.62 1.06 c-0.14 0 -0.26 0.02 -0.4 0.02 c-0.12 0 -0.24 -0.02 -0.38 -0.02 c-0.98 -0.1 -1.82 -0.48 -2.64 -1.06 c-1.06 -0.74 -1.68 -1.88 -2.02 -3.14 c-0.3 -1.06 -0.48 -2.12 -0.48 -3.22 c0 -1.32 0.1 -2.66 0.52 -3.9 c0.74 -2.14 2.78 -3.66 5 -3.7 c2.22 0.04 4.26 1.56 5.02 3.7 z M142.446 14.04 c0.2 -1.22 0.12 -2.46 -0.12 -3.68 c-0.24 -1.1 -0.72 -2.18 -1.64 -2.84 c-0.16 -0.12 -0.34 -0.22 -0.52 -0.28 c-0.26 -0.12 -0.54 -0.16 -0.8 -0.16 s-0.52 0.04 -0.78 0.16 c-0.2 0.06 -0.36 0.16 -0.52 0.28 c-0.94 0.66 -1.42 1.74 -1.64 2.84 c-0.24 1.22 -0.32 2.46 -0.12 3.68 c0.2 1.1 0.6 2.58 1.64 3.14 c0.44 0.24 0.92 0.4 1.42 0.42 c0.5 -0.02 1 -0.18 1.44 -0.42 c1.04 -0.56 1.44 -2.04 1.64 -3.14 z M149.15200000000002 7.619999999999999 c0.02 1.18 0.02 11.2 0.02 12.02 c0 0.3 0.04 0.36 0.34 0.36 c0.68 0 0.68 0.02 1.36 0 c0.14 0 0.38 0 0.5 -0.06 c0.14 -0.06 0.06 -4.78 0.06 -5.04 c0 -0.28 0.56 -0.22 0.72 -0.22 c3.34 0 4.26 -2.4 4.26 -4.44 c0 -1.84 -0.36 -5.24 -4.52 -5.24 c-0.72 0 -1.46 0.02 -2.16 0.02 c-0.16 0 -0.36 -0.02 -0.5 0.08 c-0.16 0.12 -0.1 1.9 -0.08 2.52 z M151.452 11.74 c0 -0.44 -0.02 -3.06 0 -3.86 c0 -0.12 -0.02 -0.26 0 -0.4 c0.06 -0.22 0.32 -0.22 0.52 -0.2 c1.16 0.08 1.82 1.1 1.92 2.18 c0.08 0.78 -0.02 1.94 -0.58 2.56 c-0.4 0.42 -0.92 0.68 -1.6 0.68 c-0.14 0 -0.28 -0.16 -0.28 -0.3 c0 -0.22 0 -0.44 0.02 -0.66 z M171.94400000000002 4.9 c-0.38 0.02 -0.76 0.08 -1.14 0.2 c-0.82 0.28 -1.56 0.84 -2.06 1.56 c-0.44 0.66 -0.62 1.44 -0.68 2.22 c-0.04 0.6 0.02 1.22 0.3 1.76 c0.3 0.58 0.82 1.08 1.26 1.56 c0.4 0.42 0.8 0.84 1.24 1.22 c0.4 0.38 0.86 0.68 1.26 1.08 c0.58 0.58 0.8 1.9 0.38 2.62 c-0.5 0.8 -1.68 0.92 -2.46 0.66 c-0.4 -0.14 -0.76 -0.44 -1.1 -0.68 c-0.2 -0.14 -0.44 -0.2 -0.58 0.04 c-0.08 0.12 -0.12 0.26 -0.16 0.38 c-0.14 0.5 -0.32 0.96 -0.34 1.5 c-0.02 0.62 1.16 0.8 1.6 0.9 c1.96 0.46 4.32 0.1 5.34 -1.84 c0.2 -0.4 0.34 -0.82 0.42 -1.26 c0.02 -0.16 0.04 -0.3 0.04 -0.46 c0.08 -1.28 -0.44 -2.36 -1.22 -3.32 c-0.84 -1.04 -1.9 -1.76 -2.88 -2.66 c-0.6 -0.56 -0.82 -1.44 -0.64 -2.24 c0.18 -0.86 1.16 -1.08 1.9 -0.86 c0.22 0.06 0.4 0.16 0.6 0.28 c0.12 0.06 0.24 0.14 0.4 0.14 c0.28 0.02 0.32 -0.2 0.38 -0.42 c0.14 -0.5 0.38 -0.9 0.48 -1.38 c0.1 -0.54 -0.34 -0.64 -0.78 -0.78 c-0.52 -0.14 -1.02 -0.24 -1.56 -0.22 z M185.49 14.08 c0 0.9 -0.02 2.68 -0.04 2.68 l0 2.72 c0 0.12 -0.02 0.32 0.04 0.44 c0.06 0.14 0.24 0.1 0.36 0.08 c0.58 -0.06 1.16 0.02 1.74 0 c0.64 -0.02 0.44 -1 0.42 -1.4 c-0.08 -0.88 0.02 -7.58 0.02 -9.98 c0 -1.08 -0.04 -3.3 -0.1 -3.4 c-0.1 -0.18 -0.36 -0.22 -0.56 -0.24 c-0.44 -0.08 -0.66 0.04 -1.32 0.04 s-0.7 0.2 -0.7 0.9 l0 0.6 c-0.02 0.48 0.06 3.84 0.06 4.38 c0 0.26 -0.02 0.28 -0.28 0.28 c-0.66 -0.02 -1.58 0.06 -2.26 0 c-0.98 -0.08 -0.76 0 -0.82 -0.9 l0 -0.12 c0 -1.28 0.16 -4.6 0.1 -4.8 c-0.1 -0.3 -0.22 -0.36 -0.48 -0.34 c-0.6 0.04 -1.22 -0.06 -1.82 -0.02 c-0.2 0.02 -0.26 0.08 -0.32 0.28 c-0.02 0.1 -0.04 0.2 -0.04 0.3 c0 0.62 0.04 1.46 0.06 2.08 l-0.06 11.86 c0 0.52 0.46 0.46 1.48 0.46 c0.94 0 1.18 0.22 1.18 -0.9 c0 -0.9 -0.06 -2.04 -0.04 -2.94 c0.02 -0.7 0 -1.38 0 -2.08 c0.02 -0.26 0.08 -0.34 0.32 -0.34 c0.88 -0.02 1.84 0 2.72 0 c0.28 0 0.34 0.04 0.34 0.36 z M202.816 8.68 c0.42 1.24 0.52 2.58 0.52 3.9 c0 1.1 -0.2 2.16 -0.48 3.22 c-0.36 1.26 -0.96 2.4 -2.04 3.14 c-0.8 0.58 -1.64 0.96 -2.62 1.06 c-0.14 0 -0.26 0.02 -0.4 0.02 c-0.12 0 -0.24 -0.02 -0.38 -0.02 c-0.98 -0.1 -1.82 -0.48 -2.64 -1.06 c-1.06 -0.74 -1.68 -1.88 -2.02 -3.14 c-0.3 -1.06 -0.48 -2.12 -0.48 -3.22 c0 -1.32 0.1 -2.66 0.52 -3.9 c0.74 -2.14 2.78 -3.66 5 -3.7 c2.22 0.04 4.26 1.56 5.02 3.7 z M200.876 14.04 c0.2 -1.22 0.12 -2.46 -0.12 -3.68 c-0.24 -1.1 -0.72 -2.18 -1.64 -2.84 c-0.16 -0.12 -0.34 -0.22 -0.52 -0.28 c-0.26 -0.12 -0.54 -0.16 -0.8 -0.16 s-0.52 0.04 -0.78 0.16 c-0.2 0.06 -0.36 0.16 -0.52 0.28 c-0.94 0.66 -1.42 1.74 -1.64 2.84 c-0.24 1.22 -0.32 2.46 -0.12 3.68 c0.2 1.1 0.6 2.58 1.64 3.14 c0.44 0.24 0.92 0.4 1.42 0.42 c0.5 -0.02 1 -0.18 1.44 -0.42 c1.04 -0.56 1.44 -2.04 1.64 -3.14 z M207.58200000000002 7.619999999999999 c0.02 1.18 0.02 11.2 0.02 12.02 c0 0.3 0.04 0.36 0.34 0.36 c0.68 0 0.68 0.02 1.36 0 c0.14 0 0.38 0 0.5 -0.06 c0.14 -0.06 0.06 -4.78 0.06 -5.04 c0 -0.28 0.56 -0.22 0.72 -0.22 c3.34 0 4.26 -2.4 4.26 -4.44 c0 -1.84 -0.36 -5.24 -4.52 -5.24 c-0.72 0 -1.46 0.02 -2.16 0.02 c-0.16 0 -0.36 -0.02 -0.5 0.08 c-0.16 0.12 -0.1 1.9 -0.08 2.52 z M209.882 11.74 c0 -0.44 -0.02 -3.06 0 -3.86 c0 -0.12 -0.02 -0.26 0 -0.4 c0.06 -0.22 0.32 -0.22 0.52 -0.2 c1.16 0.08 1.82 1.1 1.92 2.18 c0.08 0.78 -0.02 1.94 -0.58 2.56 c-0.4 0.42 -0.92 0.68 -1.6 0.68 c-0.14 0 -0.28 -0.16 -0.28 -0.3 c0 -0.22 0 -0.44 0.02 -0.66 z"></path></g></svg>