<svg xmlns="http://www.w3.org/2000/svg" xmlns:xlink="http://www.w3.org/1999/xlink" version="1.1" width="256" height="256" viewBox="0 0 256 256" xml:space="preserve">

<defs>
</defs>
<g style="stroke: none; stroke-width: 0; stroke-dasharray: none; stroke-linecap: butt; stroke-linejoin: miter; stroke-miterlimit: 10; fill: none; fill-rule: nonzero; opacity: 1;" transform="translate(1.4065934065934016 1.4065934065934016) scale(2.81 2.81)" >
	<path d="M 55.005 12.605 H 67.98 c 2.068 0 3.745 1.677 3.745 3.745 v 68.905 c 0 2.068 -1.677 3.745 -3.745 3.745 H 13.907 c -2.068 0 -3.745 -1.677 -3.745 -3.745 V 16.35 c 0 -2.068 1.677 -3.745 3.745 -3.745 h 12.975" style="stroke: none; stroke-width: 1; stroke-dasharray: none; stroke-linecap: butt; stroke-linejoin: miter; stroke-miterlimit: 10; fill: rgb(46,160,218); fill-rule: nonzero; opacity: 1;" transform=" matrix(1 0 0 1 0 0) " stroke-linecap="round" />
	<path d="M 47.082 6.518 C 46.754 3.417 44.132 1 40.944 1 s -5.811 2.417 -6.139 5.518 h -3.598 c -2.388 0 -4.324 1.936 -4.324 4.324 v 4.478 h 28.122 v -4.478 c 0 -2.388 -1.936 -4.324 -4.324 -4.324 H 47.082 z" style="stroke: none; stroke-width: 1; stroke-dasharray: none; stroke-linecap: butt; stroke-linejoin: miter; stroke-miterlimit: 10; fill: rgb(234,234,234); fill-rule: nonzero; opacity: 1;" transform=" matrix(1 0 0 1 0 0) " stroke-linecap="round" />
	<path d="M 67.98 90 H 13.907 c -2.617 0 -4.745 -2.129 -4.745 -4.745 V 16.35 c 0 -2.617 2.128 -4.745 4.745 -4.745 h 12.976 c 0.552 0 1 0.448 1 1 s -0.448 1 -1 1 H 13.907 c -1.514 0 -2.745 1.231 -2.745 2.745 v 68.905 c 0 1.514 1.231 2.745 2.745 2.745 H 67.98 c 1.514 0 2.745 -1.231 2.745 -2.745 V 16.35 c 0 -1.514 -1.231 -2.745 -2.745 -2.745 H 55.005 c -0.553 0 -1 -0.448 -1 -1 s 0.447 -1 1 -1 H 67.98 c 2.616 0 4.745 2.128 4.745 4.745 v 68.905 C 72.726 87.871 70.597 90 67.98 90 z" style="stroke: none; stroke-width: 1; stroke-dasharray: none; stroke-linecap: butt; stroke-linejoin: miter; stroke-miterlimit: 10; fill: rgb(0,0,0); fill-rule: nonzero; opacity: 1;" transform=" matrix(1 0 0 1 0 0) " stroke-linecap="round" />
	<path d="M 55.005 16.32 H 26.883 c -0.552 0 -1 -0.448 -1 -1 v -4.478 c 0 -2.936 2.388 -5.324 5.324 -5.324 h 2.756 C 34.713 2.316 37.571 0 40.944 0 c 3.373 0 6.23 2.316 6.981 5.518 h 2.756 c 2.936 0 5.324 2.389 5.324 5.324 v 4.478 C 56.005 15.872 55.558 16.32 55.005 16.32 z M 27.883 14.32 h 26.122 v -3.478 c 0 -1.833 -1.491 -3.324 -3.324 -3.324 h -3.599 c -0.512 0 -0.94 -0.386 -0.994 -0.895 C 45.809 3.987 43.597 2 40.944 2 C 38.29 2 36.079 3.987 35.8 6.623 c -0.054 0.509 -0.483 0.895 -0.995 0.895 h -3.599 c -1.833 0 -3.324 1.491 -3.324 3.324 V 14.32 z" style="stroke: none; stroke-width: 1; stroke-dasharray: none; stroke-linecap: butt; stroke-linejoin: miter; stroke-miterlimit: 10; fill: rgb(0,0,0); fill-rule: nonzero; opacity: 1;" transform=" matrix(1 0 0 1 0 0) " stroke-linecap="round" />
	<path d="M 20.702 36.402 c -0.028 0 -0.057 -0.001 -0.085 -0.004 c -0.311 -0.026 -0.591 -0.196 -0.758 -0.459 l -3.242 -5.094 c -0.296 -0.466 -0.159 -1.084 0.307 -1.381 s 1.084 -0.159 1.381 0.307 l 2.539 3.99 l 6.619 -7.277 c 0.372 -0.407 1.005 -0.439 1.413 -0.067 c 0.409 0.372 0.438 1.004 0.067 1.413 l -7.5 8.245 C 21.251 36.285 20.982 36.402 20.702 36.402 z" style="stroke: none; stroke-width: 1; stroke-dasharray: none; stroke-linecap: butt; stroke-linejoin: miter; stroke-miterlimit: 10; fill: rgb(0,0,0); fill-rule: nonzero; opacity: 1;" transform=" matrix(1 0 0 1 0 0) " stroke-linecap="round" />
	<path d="M 20.702 57.398 c -0.028 0 -0.057 -0.001 -0.085 -0.004 c -0.311 -0.026 -0.591 -0.196 -0.758 -0.459 l -3.242 -5.094 c -0.296 -0.466 -0.159 -1.084 0.307 -1.381 c 0.466 -0.296 1.084 -0.158 1.381 0.307 l 2.539 3.99 l 6.619 -7.277 c 0.372 -0.407 1.005 -0.438 1.413 -0.066 c 0.409 0.371 0.438 1.004 0.067 1.412 l -7.5 8.245 C 21.251 57.28 20.982 57.398 20.702 57.398 z" style="stroke: none; stroke-width: 1; stroke-dasharray: none; stroke-linecap: butt; stroke-linejoin: miter; stroke-miterlimit: 10; fill: rgb(0,0,0); fill-rule: nonzero; opacity: 1;" transform=" matrix(1 0 0 1 0 0) " stroke-linecap="round" />
	<path d="M 20.702 79.418 c -0.028 0 -0.057 -0.001 -0.085 -0.004 c -0.311 -0.026 -0.591 -0.196 -0.758 -0.459 l -3.242 -5.095 c -0.296 -0.466 -0.159 -1.084 0.307 -1.381 c 0.465 -0.296 1.084 -0.158 1.38 0.307 l 2.539 3.99 l 6.619 -7.276 c 0.372 -0.407 1.005 -0.438 1.413 -0.066 c 0.409 0.371 0.438 1.004 0.067 1.412 l -7.5 8.245 C 21.251 79.3 20.982 79.418 20.702 79.418 z" style="stroke: none; stroke-width: 1; stroke-dasharray: none; stroke-linecap: butt; stroke-linejoin: miter; stroke-miterlimit: 10; fill: rgb(0,0,0); fill-rule: nonzero; opacity: 1;" transform=" matrix(1 0 0 1 0 0) " stroke-linecap="round" />
	<path d="M 60.335 32.657 H 36.023 c -0.552 0 -1 -0.448 -1 -1 s 0.448 -1 1 -1 h 24.312 c 0.553 0 1 0.448 1 1 S 60.888 32.657 60.335 32.657 z" style="stroke: none; stroke-width: 1; stroke-dasharray: none; stroke-linecap: butt; stroke-linejoin: miter; stroke-miterlimit: 10; fill: rgb(0,0,0); fill-rule: nonzero; opacity: 1;" transform=" matrix(1 0 0 1 0 0) " stroke-linecap="round" />
	<path d="M 42.944 53.653 h -6.92 c -0.552 0 -1 -0.447 -1 -1 s 0.448 -1 1 -1 h 6.92 c 0.552 0 1 0.447 1 1 S 43.496 53.653 42.944 53.653 z" style="stroke: none; stroke-width: 1; stroke-dasharray: none; stroke-linecap: butt; stroke-linejoin: miter; stroke-miterlimit: 10; fill: rgb(0,0,0); fill-rule: nonzero; opacity: 1;" transform=" matrix(1 0 0 1 0 0) " stroke-linecap="round" />
	<path d="M 60.335 75.673 H 36.023 c -0.552 0 -1 -0.447 -1 -1 s 0.448 -1 1 -1 h 24.312 c 0.553 0 1 0.447 1 1 S 60.888 75.673 60.335 75.673 z" style="stroke: none; stroke-width: 1; stroke-dasharray: none; stroke-linecap: butt; stroke-linejoin: miter; stroke-miterlimit: 10; fill: rgb(0,0,0); fill-rule: nonzero; opacity: 1;" transform=" matrix(1 0 0 1 0 0) " stroke-linecap="round" />
	<path d="M 77.441 48.537 c -0.911 0 -1.728 -0.524 -2.147 -1.333 c -0.083 -0.161 -0.171 -0.322 -0.263 -0.481 c -0.092 -0.159 -0.187 -0.315 -0.285 -0.468 c -0.492 -0.767 -0.537 -1.737 -0.081 -2.526 v 0 c 0.662 -1.146 0.269 -2.612 -0.877 -3.274 l -3.174 -1.833 c -1.146 -0.662 -2.612 -0.269 -3.274 0.877 l -0.001 0.001 c -0.449 0.778 -1.294 1.236 -2.191 1.192 c -0.39 -0.019 -0.781 -0.019 -1.173 0 c -0.895 0.043 -1.739 -0.416 -2.187 -1.192 l 0 -0.001 c -0.662 -1.146 -2.127 -1.539 -3.274 -0.877 l -3.174 1.833 c -1.146 0.662 -1.539 2.127 -0.877 3.274 l 0 0.001 c 0.448 0.776 0.424 1.737 -0.061 2.49 c -0.212 0.33 -0.408 0.669 -0.586 1.016 c -0.41 0.799 -1.23 1.302 -2.128 1.302 h -0.001 c -1.324 0 -2.397 1.073 -2.397 2.397 v 3.665 c 0 1.324 1.073 2.397 2.397 2.396 v 0 c 0.911 0 1.728 0.524 2.147 1.333 c 0.083 0.161 0.171 0.322 0.263 0.481 c 0.092 0.159 0.187 0.315 0.285 0.468 c 0.492 0.767 0.537 1.737 0.081 2.526 c -0.662 1.146 -0.269 2.612 0.877 3.274 l 3.174 1.833 c 1.146 0.662 2.612 0.269 3.274 -0.877 l 0.001 -0.001 c 0.449 -0.778 1.294 -1.236 2.191 -1.192 c 0.39 0.019 0.781 0.019 1.173 0 c 0.895 -0.043 1.739 0.416 2.187 1.192 l 0 0.001 c 0.662 1.146 2.127 1.539 3.274 0.877 l 3.174 -1.833 c 1.146 -0.662 1.539 -2.127 0.877 -3.274 l 0 -0.001 c -0.448 -0.776 -0.424 -1.737 0.061 -2.49 c 0.212 -0.33 0.408 -0.669 0.586 -1.016 c 0.411 -0.799 1.23 -1.302 2.128 -1.302 l 0.001 0 c 1.324 0 2.397 -1.073 2.397 -2.396 v -3.665 C 79.838 49.61 78.765 48.537 77.441 48.537 z M 67.472 57.802 c -2.781 1.606 -6.337 0.653 -7.943 -2.128 c -1.606 -2.781 -0.653 -6.337 2.128 -7.943 c 2.781 -1.606 6.337 -0.653 7.943 2.128 C 71.205 52.64 70.253 56.196 67.472 57.802 z" style="stroke: none; stroke-width: 1; stroke-dasharray: none; stroke-linecap: butt; stroke-linejoin: miter; stroke-miterlimit: 10; fill: rgb(255,191,77); fill-rule: nonzero; opacity: 1;" transform=" matrix(1 0 0 1 0 0) " stroke-linecap="round" />
	<path d="M 59.707 68.232 c -0.589 0 -1.169 -0.154 -1.692 -0.456 l -3.175 -1.833 c -0.785 -0.453 -1.348 -1.186 -1.582 -2.062 c -0.235 -0.877 -0.114 -1.792 0.339 -2.578 c 0.262 -0.453 0.24 -1.022 -0.058 -1.487 c -0.104 -0.162 -0.208 -0.333 -0.309 -0.507 c -0.099 -0.172 -0.192 -0.345 -0.283 -0.519 c -0.255 -0.491 -0.736 -0.795 -1.26 -0.795 c -1.873 -0.001 -3.396 -1.525 -3.396 -3.397 v -3.665 c 0 -1.873 1.523 -3.396 3.396 -3.396 c 0.524 0 0.999 -0.291 1.239 -0.759 c 0.194 -0.376 0.405 -0.742 0.634 -1.099 c 0.284 -0.441 0.299 -0.997 0.037 -1.45 c -0.454 -0.785 -0.575 -1.701 -0.34 -2.578 c 0.234 -0.876 0.797 -1.608 1.582 -2.062 l 3.175 -1.833 c 0.785 -0.453 1.702 -0.573 2.577 -0.339 c 0.877 0.235 1.609 0.797 2.063 1.583 c 0.262 0.453 0.754 0.735 1.272 0.693 c 0.424 -0.021 0.849 -0.021 1.271 0 c 0.52 0.036 1.015 -0.239 1.276 -0.693 c 0.454 -0.786 1.187 -1.348 2.063 -1.583 s 1.791 -0.115 2.578 0.339 l 3.174 1.833 c 0.786 0.453 1.348 1.186 1.583 2.062 c 0.234 0.876 0.113 1.792 -0.34 2.578 c -0.262 0.453 -0.239 1.022 0.058 1.485 c 0.106 0.168 0.209 0.336 0.308 0.506 c 0.101 0.176 0.196 0.35 0.286 0.524 c 0.253 0.488 0.735 0.792 1.259 0.792 c 1.873 0 3.396 1.523 3.396 3.396 v 3.665 c 0 1.873 -1.523 3.396 -3.396 3.396 c -0.523 0 -0.999 0.291 -1.239 0.759 c -0.194 0.377 -0.406 0.745 -0.637 1.102 c -0.282 0.439 -0.296 0.994 -0.034 1.447 c 0.453 0.786 0.574 1.702 0.34 2.578 c -0.235 0.877 -0.797 1.609 -1.583 2.063 l -3.174 1.833 c -1.62 0.935 -3.704 0.379 -4.641 -1.243 c -0.261 -0.453 -0.749 -0.719 -1.273 -0.694 c -0.421 0.021 -0.843 0.021 -1.268 0 c -0.524 -0.021 -1.016 0.24 -1.277 0.692 c -0.454 0.787 -1.187 1.349 -2.063 1.584 C 60.3 68.193 60.002 68.232 59.707 68.232 z M 59.711 39.302 c -0.237 0 -0.477 0.061 -0.696 0.187 l -3.175 1.833 c -0.323 0.186 -0.554 0.487 -0.65 0.848 s -0.047 0.737 0.14 1.059 c 0.638 1.106 0.605 2.46 -0.086 3.533 c -0.194 0.302 -0.374 0.613 -0.538 0.932 c -0.583 1.137 -1.739 1.844 -3.017 1.844 c -0.771 0 -1.397 0.626 -1.397 1.396 v 3.665 c 0 0.771 0.626 1.396 1.396 1.396 c 1.274 0.001 2.438 0.72 3.034 1.874 c 0.076 0.146 0.156 0.294 0.241 0.44 c 0.083 0.145 0.169 0.286 0.259 0.424 c 0.704 1.102 0.744 2.468 0.107 3.57 c -0.187 0.323 -0.236 0.699 -0.14 1.06 s 0.327 0.661 0.65 0.848 l 3.175 1.833 c 0.322 0.186 0.698 0.236 1.06 0.14 c 0.36 -0.097 0.661 -0.327 0.848 -0.65 c 0.638 -1.105 1.84 -1.753 3.107 -1.692 c 0.355 0.018 0.714 0.019 1.073 0 c 1.294 -0.049 2.466 0.587 3.104 1.691 c 0.386 0.667 1.238 0.898 1.908 0.512 l 3.174 -1.833 c 0.323 -0.187 0.555 -0.487 0.65 -0.848 c 0.097 -0.36 0.047 -0.736 -0.14 -1.06 c -0.638 -1.104 -0.604 -2.458 0.085 -3.532 c 0.197 -0.304 0.376 -0.613 0.539 -0.932 c 0.585 -1.138 1.741 -1.845 3.018 -1.845 c 0.771 0 1.397 -0.626 1.397 -1.396 v -3.665 c 0 -0.771 -0.626 -1.396 -1.396 -1.396 c -1.274 0 -2.438 -0.718 -3.035 -1.874 c -0.077 -0.149 -0.157 -0.296 -0.241 -0.44 s -0.171 -0.289 -0.262 -0.431 c -0.7 -1.092 -0.741 -2.458 -0.104 -3.563 c 0.187 -0.324 0.236 -0.7 0.14 -1.06 c -0.096 -0.36 -0.327 -0.661 -0.65 -0.848 l -3.174 -1.833 c -0.667 -0.383 -1.522 -0.156 -1.908 0.512 c -0.639 1.107 -1.833 1.746 -3.106 1.692 c -0.355 -0.017 -0.714 -0.017 -1.075 0 c -1.289 0.062 -2.464 -0.586 -3.102 -1.692 C 60.664 39.552 60.193 39.302 59.711 39.302 z M 64.575 59.584 c -0.592 0 -1.188 -0.078 -1.774 -0.235 c -1.759 -0.471 -3.229 -1.599 -4.139 -3.175 s -1.151 -3.413 -0.681 -5.172 c 0.472 -1.758 1.6 -3.228 3.176 -4.138 c 1.575 -0.909 3.41 -1.151 5.171 -0.681 c 1.758 0.472 3.228 1.6 4.138 3.176 s 1.151 3.412 0.681 5.171 c -0.471 1.758 -1.599 3.228 -3.175 4.138 C 66.922 59.274 65.756 59.584 64.575 59.584 z M 64.556 47.949 c -0.834 0 -1.657 0.219 -2.398 0.647 c -1.114 0.643 -1.91 1.681 -2.243 2.924 c -0.333 1.242 -0.163 2.54 0.48 3.653 c 0.643 1.113 1.681 1.91 2.923 2.243 c 1.244 0.334 2.54 0.162 3.654 -0.481 c 1.113 -0.643 1.91 -1.681 2.243 -2.923 s 0.162 -2.54 -0.481 -3.653 c -0.643 -1.114 -1.681 -1.91 -2.923 -2.243 C 65.396 48.005 64.974 47.949 64.556 47.949 z" style="stroke: none; stroke-width: 1; stroke-dasharray: none; stroke-linecap: butt; stroke-linejoin: miter; stroke-miterlimit: 10; fill: rgb(0,0,0); fill-rule: nonzero; opacity: 1;" transform=" matrix(1 0 0 1 0 0) " stroke-linecap="round" />
</g>
</svg>