<svg xmlns="http://www.w3.org/2000/svg" xmlns:xlink="http://www.w3.org/1999/xlink" version="1.1" width="256" height="256" viewBox="0 0 256 256" xml:space="preserve">

<defs>
</defs>
<g style="stroke: none; stroke-width: 0; stroke-dasharray: none; stroke-linecap: butt; stroke-linejoin: miter; stroke-miterlimit: 10; fill: none; fill-rule: nonzero; opacity: 1;" transform="translate(1.4065934065934016 1.4065934065934016) scale(2.81 2.81)" >
	<path d="M 45 18.582 L 45 18.582 c -4.333 0 -7.879 -3.545 -7.879 -7.879 V 7.879 C 37.121 3.545 40.667 0 45 0 h 0 c 4.333 0 7.879 3.545 7.879 7.879 v 2.825 C 52.879 15.037 49.333 18.582 45 18.582 z" style="stroke: none; stroke-width: 1; stroke-dasharray: none; stroke-linecap: butt; stroke-linejoin: miter; stroke-miterlimit: 10; fill: rgb(240,88,47); fill-rule: nonzero; opacity: 1;" transform=" matrix(1 0 0 1 0 0) " stroke-linecap="round" />
	<path d="M 49.436 19.665 c -1.333 0.69 -2.839 1.087 -4.436 1.087 s -3.103 -0.397 -4.436 -1.087 C 34.607 20.554 30 25.723 30 31.917 v 8.15 c 0 0.746 0.61 1.356 1.356 1.356 h 27.288 c 0.746 0 1.356 -0.61 1.356 -1.356 v -8.15 C 60 25.723 55.393 20.554 49.436 19.665 z" style="stroke: none; stroke-width: 1; stroke-dasharray: none; stroke-linecap: butt; stroke-linejoin: miter; stroke-miterlimit: 10; fill: rgb(240,88,47); fill-rule: nonzero; opacity: 1;" transform=" matrix(1 0 0 1 0 0) " stroke-linecap="round" />
	<path d="M 75 67.16 L 75 67.16 c -4.333 0 -7.879 -3.545 -7.879 -7.879 v -2.825 c 0 -4.333 3.545 -7.879 7.879 -7.879 h 0 c 4.333 0 7.879 3.545 7.879 7.879 v 2.825 C 82.879 63.615 79.333 67.16 75 67.16 z" style="stroke: none; stroke-width: 1; stroke-dasharray: none; stroke-linecap: butt; stroke-linejoin: miter; stroke-miterlimit: 10; fill: rgb(113,212,86); fill-rule: nonzero; opacity: 1;" transform=" matrix(1 0 0 1 0 0) " stroke-linecap="round" />
	<path d="M 79.436 68.243 c -1.333 0.69 -2.839 1.087 -4.436 1.087 s -3.103 -0.397 -4.436 -1.087 C 64.607 69.132 60 74.301 60 80.494 v 8.15 C 60 89.39 60.61 90 61.356 90 h 27.288 C 89.39 90 90 89.39 90 88.644 v -8.15 C 90 74.301 85.393 69.132 79.436 68.243 z" style="stroke: none; stroke-width: 1; stroke-dasharray: none; stroke-linecap: butt; stroke-linejoin: miter; stroke-miterlimit: 10; fill: rgb(113,212,86); fill-rule: nonzero; opacity: 1;" transform=" matrix(1 0 0 1 0 0) " stroke-linecap="round" />
	<path d="M 15 67.16 L 15 67.16 c -4.333 0 -7.879 -3.545 -7.879 -7.879 v -2.825 c 0 -4.333 3.545 -7.879 7.879 -7.879 h 0 c 4.333 0 7.879 3.545 7.879 7.879 v 2.825 C 22.879 63.615 19.333 67.16 15 67.16 z" style="stroke: none; stroke-width: 1; stroke-dasharray: none; stroke-linecap: butt; stroke-linejoin: miter; stroke-miterlimit: 10; fill: rgb(110,177,225); fill-rule: nonzero; opacity: 1;" transform=" matrix(1 0 0 1 0 0) " stroke-linecap="round" />
	<path d="M 19.436 68.243 c -1.333 0.69 -2.839 1.087 -4.436 1.087 s -3.103 -0.397 -4.436 -1.087 C 4.607 69.132 0 74.301 0 80.494 v 8.15 C 0 89.39 0.61 90 1.356 90 h 27.288 C 29.39 90 30 89.39 30 88.644 v -8.15 C 30 74.301 25.393 69.132 19.436 68.243 z" style="stroke: none; stroke-width: 1; stroke-dasharray: none; stroke-linecap: butt; stroke-linejoin: miter; stroke-miterlimit: 10; fill: rgb(110,177,225); fill-rule: nonzero; opacity: 1;" transform=" matrix(1 0 0 1 0 0) " stroke-linecap="round" />
	<path d="M 48 43.745 h -6 v 34.322 h -9.199 C 32.93 78.861 33 79.671 33 80.494 v 3.573 h 24 v -3.573 c 0 -0.823 0.07 -1.634 0.199 -2.427 H 48 V 43.745 z" style="stroke: none; stroke-width: 1; stroke-dasharray: none; stroke-linecap: butt; stroke-linejoin: miter; stroke-miterlimit: 10; fill: rgb(100,107,121); fill-rule: nonzero; opacity: 1;" transform=" matrix(1 0 0 1 0 0) " stroke-linecap="round" />
</g>
</svg>