<?xml version="1.0" encoding="iso-8859-1"?>
<!-- Uploaded to: SVG Repo, www.svgrepo.com, Generator: SVG Repo Mixer Tools -->
<svg version="1.1" id="Layer_1" xmlns="http://www.w3.org/2000/svg" xmlns:xlink="http://www.w3.org/1999/xlink" 
	 viewBox="0 0 508 508" xml:space="preserve">
<circle style="fill:#324A5E;" cx="254" cy="254" r="254"/>
<path style="fill:#CED5E0;" d="M414,207.2v70.4h-12.8v-64H260.4v63.6h-12.8v-63.6H106.8v63.6H94v-70c0-3.6,2.8-6.4,6.4-6.4h147.2
	v-66.4h12.8v66h147.2C411.2,200.4,414,203.6,414,207.2z"/>
<g>
	<path style="fill:#FFFFFF;" d="M285.6,43.6h-63.2c-7.6,0-14,6-14,14v63.2c0,7.6,6,14,14,14h63.2c7.6,0,14-6,14-14V57.6
		C299.2,50,293.2,43.6,285.6,43.6z"/>
	<path style="fill:#FFFFFF;" d="M132,277.2H68.8c-7.6,0-14,6-14,14V354c0,7.6,6,14,14,14H132c7.6,0,14-6,14-14v-62.8
		C145.6,283.2,139.6,277.2,132,277.2z"/>
	<path style="fill:#FFFFFF;" d="M285.6,277.2h-63.2c-7.6,0-14,6-14,14V354c0,7.6,6,14,14,14h63.2c7.6,0,14-6,14-14v-62.8
		C299.2,283.2,293.2,277.2,285.6,277.2z"/>
	<path style="fill:#FFFFFF;" d="M439.2,277.2H376c-7.6,0-14,6-14,14V354c0,7.6,6,14,14,14h63.2c7.6,0,14-6,14-14v-62.8
		C453.2,283.2,446.8,277.2,439.2,277.2z"/>
</g>
<rect x="226.8" y="62" style="fill:#FF7058;" width="54.4" height="54.4"/>
<rect x="380.4" y="295.2" style="fill:#4CDBC4;" width="54.4" height="54.4"/>
<rect x="226.8" y="295.2" style="fill:#FFD05B;" width="54.4" height="54.4"/>
<rect x="73.2" y="295.2" style="fill:#84DBFF;" width="54.4" height="54.4"/>
</svg>