<svg xmlns="http://www.w3.org/2000/svg" xmlns:xlink="http://www.w3.org/1999/xlink" version="1.1" width="256" height="256" viewBox="0 0 256 256" xml:space="preserve">

<defs>
</defs>
<g style="stroke: none; stroke-width: 0; stroke-dasharray: none; stroke-linecap: butt; stroke-linejoin: miter; stroke-miterlimit: 10; fill: none; fill-rule: nonzero; opacity: 1;" transform="translate(1.4065934065934016 1.4065934065934016) scale(2.81 2.81)" >
	<path d="M 80.284 11.049 c 0.654 0 1.186 -0.603 1.081 -1.279 c -0.583 -3.747 -3.687 -6.608 -7.428 -6.608 h -5.445 l -5.814 7.887 H 80.284 z" style="stroke: none; stroke-width: 1; stroke-dasharray: none; stroke-linecap: butt; stroke-linejoin: miter; stroke-miterlimit: 10; fill: rgb(179,198,193); fill-rule: nonzero; opacity: 1;" transform=" matrix(1 0 0 1 0 0) " stroke-linecap="round" />
	<path d="M 65.987 75.93 V 52.727 V 10.855 c 0 -4.25 3.445 -7.696 7.696 -7.696 H 25.298 h 0 c -4.25 0 -7.696 3.445 -7.696 7.696 v 41.873 V 75.93 H 65.987 z" style="stroke: none; stroke-width: 1; stroke-dasharray: none; stroke-linecap: butt; stroke-linejoin: miter; stroke-miterlimit: 10; fill: rgb(211,237,229); fill-rule: nonzero; opacity: 1;" transform=" matrix(1 0 0 1 0 0) " stroke-linecap="round" />
	<path d="M 17.659 76.649" style="stroke: none; stroke-width: 1; stroke-dasharray: none; stroke-linecap: butt; stroke-linejoin: miter; stroke-miterlimit: 10; fill: rgb(190,201,208); fill-rule: nonzero; opacity: 1;" transform=" matrix(1 0 0 1 0 0) " stroke-linecap="round" />
	<path d="M 27.384 18.504 h -3.928 c -0.552 0 -1 -0.448 -1 -1 s 0.448 -1 1 -1 h 3.928 c 0.552 0 1 0.448 1 1 S 27.936 18.504 27.384 18.504 z" style="stroke: none; stroke-width: 1; stroke-dasharray: none; stroke-linecap: butt; stroke-linejoin: miter; stroke-miterlimit: 10; fill: rgb(179,198,193); fill-rule: nonzero; opacity: 1;" transform=" matrix(1 0 0 1 0 0) " stroke-linecap="round" />
	<path d="M 59.878 18.504 H 35.483 c -0.552 0 -1 -0.448 -1 -1 s 0.448 -1 1 -1 h 24.395 c 0.553 0 1 0.448 1 1 S 60.431 18.504 59.878 18.504 z" style="stroke: none; stroke-width: 1; stroke-dasharray: none; stroke-linecap: butt; stroke-linejoin: miter; stroke-miterlimit: 10; fill: rgb(179,198,193); fill-rule: nonzero; opacity: 1;" transform=" matrix(1 0 0 1 0 0) " stroke-linecap="round" />
	<path d="M 59.878 28.293 H 48.944 c -0.553 0 -1 -0.448 -1 -1 s 0.447 -1 1 -1 h 10.934 c 0.553 0 1 0.448 1 1 S 60.431 28.293 59.878 28.293 z" style="stroke: none; stroke-width: 1; stroke-dasharray: none; stroke-linecap: butt; stroke-linejoin: miter; stroke-miterlimit: 10; fill: rgb(179,198,193); fill-rule: nonzero; opacity: 1;" transform=" matrix(1 0 0 1 0 0) " stroke-linecap="round" />
	<path d="M 59.878 37.503 H 48.944 c -0.553 0 -1 -0.448 -1 -1 s 0.447 -1 1 -1 h 10.934 c 0.553 0 1 0.448 1 1 S 60.431 37.503 59.878 37.503 z" style="stroke: none; stroke-width: 1; stroke-dasharray: none; stroke-linecap: butt; stroke-linejoin: miter; stroke-miterlimit: 10; fill: rgb(179,198,193); fill-rule: nonzero; opacity: 1;" transform=" matrix(1 0 0 1 0 0) " stroke-linecap="round" />
	<path d="M 77.009 80.701 H 53.345 c -0.587 0 -1.063 0.821 -1.063 1.833 v 2.371 l 0 0 c 0 1.047 0.492 1.896 1.099 1.896 h 23.591 c 0.607 0 1.099 -0.849 1.099 -1.896 l 0 0 v -2.371 C 78.072 81.522 77.596 80.701 77.009 80.701 z" style="stroke: none; stroke-width: 1; stroke-dasharray: none; stroke-linecap: butt; stroke-linejoin: miter; stroke-miterlimit: 10; fill: rgb(252,198,69); fill-rule: nonzero; opacity: 1;" transform=" matrix(1 0 0 1 0 0) " stroke-linecap="round" />
	<path d="M 77.009 74.6 H 53.345 c -0.587 0 -1.063 0.821 -1.063 1.833 v 2.371 c 0 1.047 0.492 1.897 1.099 1.897 h 23.591 c 0.607 0 1.099 -0.849 1.099 -1.897 v -2.371 C 78.072 75.421 77.596 74.6 77.009 74.6 z" style="stroke: none; stroke-width: 1; stroke-dasharray: none; stroke-linecap: butt; stroke-linejoin: miter; stroke-miterlimit: 10; fill: rgb(255,211,108); fill-rule: nonzero; opacity: 1;" transform=" matrix(1 0 0 1 0 0) " stroke-linecap="round" />
	<path d="M 77.009 68.499 H 53.345 c -0.587 0 -1.063 0.821 -1.063 1.833 v 2.371 c 0 1.047 0.492 1.897 1.099 1.897 h 23.591 c 0.607 0 1.099 -0.849 1.099 -1.897 v -2.371 C 78.072 69.32 77.596 68.499 77.009 68.499 z" style="stroke: none; stroke-width: 1; stroke-dasharray: none; stroke-linecap: butt; stroke-linejoin: miter; stroke-miterlimit: 10; fill: rgb(252,198,69); fill-rule: nonzero; opacity: 1;" transform=" matrix(1 0 0 1 0 0) " stroke-linecap="round" />
	<path d="M 77.009 62.399 H 53.345 c -0.587 0 -1.063 0.821 -1.063 1.833 v 2.371 c 0 1.047 0.492 1.896 1.099 1.896 h 23.591 c 0.607 0 1.099 -0.849 1.099 -1.896 v -2.371 C 78.072 63.22 77.596 62.399 77.009 62.399 z" style="stroke: none; stroke-width: 1; stroke-dasharray: none; stroke-linecap: butt; stroke-linejoin: miter; stroke-miterlimit: 10; fill: rgb(255,211,108); fill-rule: nonzero; opacity: 1;" transform=" matrix(1 0 0 1 0 0) " stroke-linecap="round" />
	<path d="M 77.009 56.298 H 53.345 c -0.587 0 -1.063 0.821 -1.063 1.833 v 2.371 c 0 1.047 0.492 1.897 1.099 1.897 h 23.591 c 0.607 0 1.099 -0.849 1.099 -1.897 v -2.371 C 78.072 57.119 77.596 56.298 77.009 56.298 z" style="stroke: none; stroke-width: 1; stroke-dasharray: none; stroke-linecap: butt; stroke-linejoin: miter; stroke-miterlimit: 10; fill: rgb(252,198,69); fill-rule: nonzero; opacity: 1;" transform=" matrix(1 0 0 1 0 0) " stroke-linecap="round" />
	<path d="M 77.009 50.198 H 53.345 c -0.587 0 -1.063 0.821 -1.063 1.833 v 2.371 l 0 0 c 0 1.047 0.492 1.896 1.099 1.896 h 23.591 c 0.607 0 1.099 -0.849 1.099 -1.896 l 0 0 v -2.371 C 78.072 51.019 77.596 50.198 77.009 50.198 z" style="stroke: none; stroke-width: 1; stroke-dasharray: none; stroke-linecap: butt; stroke-linejoin: miter; stroke-miterlimit: 10; fill: rgb(255,211,108); fill-rule: nonzero; opacity: 1;" transform=" matrix(1 0 0 1 0 0) " stroke-linecap="round" />
	<path d="M 77.009 44.097 H 53.345 c -0.587 0 -1.063 0.821 -1.063 1.833 v 2.371 c 0 1.047 0.492 1.897 1.099 1.897 h 23.591 c 0.607 0 1.099 -0.849 1.099 -1.897 V 45.93 C 78.072 44.918 77.596 44.097 77.009 44.097 z" style="stroke: none; stroke-width: 1; stroke-dasharray: none; stroke-linecap: butt; stroke-linejoin: miter; stroke-miterlimit: 10; fill: rgb(252,198,69); fill-rule: nonzero; opacity: 1;" transform=" matrix(1 0 0 1 0 0) " stroke-linecap="round" />
	<circle cx="76.188" cy="73.02799999999999" r="13.808" style="stroke: none; stroke-width: 1; stroke-dasharray: none; stroke-linecap: butt; stroke-linejoin: miter; stroke-miterlimit: 10; fill: rgb(234,175,32); fill-rule: nonzero; opacity: 1;" transform="  matrix(1 0 0 1 0 0) "/>
	<circle cx="76.19200000000001" cy="73.03200000000001" r="9.192" style="stroke: none; stroke-width: 1; stroke-dasharray: none; stroke-linecap: butt; stroke-linejoin: miter; stroke-miterlimit: 10; fill: rgb(255,211,108); fill-rule: nonzero; opacity: 1;" transform="  matrix(1 0 0 1 0 0) "/>
	<path d="M 76.122 78.745 c -1.337 0 -2.597 -0.818 -3.093 -2.142 c -0.193 -0.517 0.068 -1.093 0.586 -1.287 c 0.513 -0.191 1.093 0.067 1.287 0.586 c 0.252 0.671 1.004 1.01 1.673 0.76 c 0.324 -0.122 0.582 -0.363 0.726 -0.679 c 0.144 -0.316 0.155 -0.669 0.033 -0.993 c -0.144 -0.385 -0.453 -0.671 -0.85 -0.787 l -1.211 -0.442 c -0.943 -0.274 -1.73 -1.005 -2.098 -1.982 c -0.309 -0.826 -0.278 -1.723 0.086 -2.524 c 0.364 -0.803 1.021 -1.415 1.846 -1.724 c 0.825 -0.311 1.721 -0.279 2.522 0.086 c 0.803 0.364 1.415 1.02 1.725 1.845 c 0.193 0.518 -0.068 1.094 -0.585 1.288 c -0.518 0.191 -1.095 -0.067 -1.288 -0.585 c -0.122 -0.325 -0.363 -0.584 -0.679 -0.728 s -0.667 -0.155 -0.993 -0.033 c -0.671 0.251 -1.012 1.001 -0.761 1.673 c 0.144 0.384 0.454 0.67 0.85 0.786 l 1.211 0.442 c 0.944 0.274 1.731 1.005 2.098 1.983 c 0.639 1.701 -0.227 3.607 -1.93 4.247 C 76.897 78.677 76.507 78.745 76.122 78.745 z" style="stroke: none; stroke-width: 1; stroke-dasharray: none; stroke-linecap: butt; stroke-linejoin: miter; stroke-miterlimit: 10; fill: rgb(211,155,30); fill-rule: nonzero; opacity: 1;" transform=" matrix(1 0 0 1 0 0) " stroke-linecap="round" />
	<path d="M 76.191 69.323 c -0.553 0 -1 -0.447 -1 -1 v -1.285 c 0 -0.553 0.447 -1 1 -1 s 1 0.447 1 1 v 1.285 C 77.191 68.876 76.744 69.323 76.191 69.323 z" style="stroke: none; stroke-width: 1; stroke-dasharray: none; stroke-linecap: butt; stroke-linejoin: miter; stroke-miterlimit: 10; fill: rgb(211,155,30); fill-rule: nonzero; opacity: 1;" transform=" matrix(1 0 0 1 0 0) " stroke-linecap="round" />
	<path d="M 76.191 80.027 c -0.553 0 -1 -0.447 -1 -1 v -1.285 c 0 -0.553 0.447 -1 1 -1 s 1 0.447 1 1 v 1.285 C 77.191 79.58 76.744 80.027 76.191 80.027 z" style="stroke: none; stroke-width: 1; stroke-dasharray: none; stroke-linecap: butt; stroke-linejoin: miter; stroke-miterlimit: 10; fill: rgb(211,155,30); fill-rule: nonzero; opacity: 1;" transform=" matrix(1 0 0 1 0 0) " stroke-linecap="round" />
	<path d="M 38.305 26.655 H 3.537 C 1.583 26.655 0 28.238 0 30.192 v 53.112 c 0 1.953 1.583 3.537 3.537 3.537 h 34.768 c 1.953 0 3.537 -1.583 3.537 -3.537 V 30.192 C 41.842 28.238 40.258 26.655 38.305 26.655 z" style="stroke: none; stroke-width: 1; stroke-dasharray: none; stroke-linecap: butt; stroke-linejoin: miter; stroke-miterlimit: 10; fill: rgb(114,228,160); fill-rule: nonzero; opacity: 1;" transform=" matrix(1 0 0 1 0 0) " stroke-linecap="round" />
	<rect x="5.01" y="50.35" rx="0" ry="0" width="13.73" height="13.73" style="stroke: none; stroke-width: 1; stroke-dasharray: none; stroke-linecap: butt; stroke-linejoin: miter; stroke-miterlimit: 10; fill: rgb(36,211,181); fill-rule: nonzero; opacity: 1;" transform=" matrix(1 0 0 1 0 0) "/>
	<rect x="23.1" y="50.35" rx="0" ry="0" width="13.73" height="13.73" style="stroke: none; stroke-width: 1; stroke-dasharray: none; stroke-linecap: butt; stroke-linejoin: miter; stroke-miterlimit: 10; fill: rgb(36,211,181); fill-rule: nonzero; opacity: 1;" transform=" matrix(1 0 0 1 0 0) "/>
	<rect x="5.01" y="68.45" rx="0" ry="0" width="13.73" height="13.73" style="stroke: none; stroke-width: 1; stroke-dasharray: none; stroke-linecap: butt; stroke-linejoin: miter; stroke-miterlimit: 10; fill: rgb(36,211,181); fill-rule: nonzero; opacity: 1;" transform=" matrix(1 0 0 1 0 0) "/>
	<rect x="5.01" y="31.52" rx="0" ry="0" width="31.82" height="13.69" style="stroke: none; stroke-width: 1; stroke-dasharray: none; stroke-linecap: butt; stroke-linejoin: miter; stroke-miterlimit: 10; fill: rgb(225,255,244); fill-rule: nonzero; opacity: 1;" transform=" matrix(1 0 0 1 0 0) "/>
	<rect x="23.1" y="68.45" rx="0" ry="0" width="13.73" height="13.73" style="stroke: none; stroke-width: 1; stroke-dasharray: none; stroke-linecap: butt; stroke-linejoin: miter; stroke-miterlimit: 10; fill: rgb(36,211,181); fill-rule: nonzero; opacity: 1;" transform=" matrix(1 0 0 1 0 0) "/>
	<path d="M 11.874 61.663 c -0.552 0 -1 -0.447 -1 -1 v -6.892 c 0 -0.553 0.448 -1 1 -1 s 1 0.447 1 1 v 6.892 C 12.874 61.216 12.426 61.663 11.874 61.663 z" style="stroke: none; stroke-width: 1; stroke-dasharray: none; stroke-linecap: butt; stroke-linejoin: miter; stroke-miterlimit: 10; fill: rgb(225,255,244); fill-rule: nonzero; opacity: 1;" transform=" matrix(1 0 0 1 0 0) " stroke-linecap="round" />
	<path d="M 15.32 58.217 H 8.428 c -0.552 0 -1 -0.447 -1 -1 s 0.448 -1 1 -1 h 6.892 c 0.552 0 1 0.447 1 1 S 15.872 58.217 15.32 58.217 z" style="stroke: none; stroke-width: 1; stroke-dasharray: none; stroke-linecap: butt; stroke-linejoin: miter; stroke-miterlimit: 10; fill: rgb(225,255,244); fill-rule: nonzero; opacity: 1;" transform=" matrix(1 0 0 1 0 0) " stroke-linecap="round" />
	<path d="M 33.414 58.217 h -6.891 c -0.552 0 -1 -0.447 -1 -1 s 0.448 -1 1 -1 h 6.891 c 0.552 0 1 0.447 1 1 S 33.966 58.217 33.414 58.217 z" style="stroke: none; stroke-width: 1; stroke-dasharray: none; stroke-linecap: butt; stroke-linejoin: miter; stroke-miterlimit: 10; fill: rgb(225,255,244); fill-rule: nonzero; opacity: 1;" transform=" matrix(1 0 0 1 0 0) " stroke-linecap="round" />
	<path d="M 9.438 78.748 c -0.256 0 -0.512 -0.098 -0.707 -0.293 c -0.391 -0.391 -0.391 -1.023 0 -1.414 l 4.873 -4.873 c 0.391 -0.391 1.023 -0.391 1.414 0 s 0.391 1.023 0 1.414 l -4.873 4.873 C 9.949 78.65 9.693 78.748 9.438 78.748 z" style="stroke: none; stroke-width: 1; stroke-dasharray: none; stroke-linecap: butt; stroke-linejoin: miter; stroke-miterlimit: 10; fill: rgb(225,255,244); fill-rule: nonzero; opacity: 1;" transform=" matrix(1 0 0 1 0 0) " stroke-linecap="round" />
	<path d="M 14.311 78.748 c -0.256 0 -0.512 -0.098 -0.707 -0.293 L 8.73 73.582 c -0.391 -0.391 -0.391 -1.023 0 -1.414 s 1.023 -0.391 1.414 0 l 4.873 4.873 c 0.391 0.391 0.391 1.023 0 1.414 C 14.822 78.65 14.566 78.748 14.311 78.748 z" style="stroke: none; stroke-width: 1; stroke-dasharray: none; stroke-linecap: butt; stroke-linejoin: miter; stroke-miterlimit: 10; fill: rgb(225,255,244); fill-rule: nonzero; opacity: 1;" transform=" matrix(1 0 0 1 0 0) " stroke-linecap="round" />
	<path d="M 33.414 78.558 h -6.891 c -0.552 0 -1 -0.447 -1 -1 s 0.448 -1 1 -1 h 6.891 c 0.552 0 1 0.447 1 1 S 33.966 78.558 33.414 78.558 z" style="stroke: none; stroke-width: 1; stroke-dasharray: none; stroke-linecap: butt; stroke-linejoin: miter; stroke-miterlimit: 10; fill: rgb(225,255,244); fill-rule: nonzero; opacity: 1;" transform=" matrix(1 0 0 1 0 0) " stroke-linecap="round" />
	<path d="M 33.414 74.064 h -6.891 c -0.552 0 -1 -0.447 -1 -1 s 0.448 -1 1 -1 h 6.891 c 0.552 0 1 0.447 1 1 S 33.966 74.064 33.414 74.064 z" style="stroke: none; stroke-width: 1; stroke-dasharray: none; stroke-linecap: butt; stroke-linejoin: miter; stroke-miterlimit: 10; fill: rgb(225,255,244); fill-rule: nonzero; opacity: 1;" transform=" matrix(1 0 0 1 0 0) " stroke-linecap="round" />
</g>
</svg>