<svg xmlns="http://www.w3.org/2000/svg" xmlns:xlink="http://www.w3.org/1999/xlink" version="1.1" width="256" height="256" viewBox="0 0 256 256" xml:space="preserve">

<defs>
</defs>
<g style="stroke: none; stroke-width: 0; stroke-dasharray: none; stroke-linecap: butt; stroke-linejoin: miter; stroke-miterlimit: 10; fill: none; fill-rule: nonzero; opacity: 1;" transform="translate(1.4065934065934016 1.4065934065934016) scale(2.81 2.81)" >
	<path d="M 28.849 36.461 H 23.76 c -1.097 0 -1.986 -0.889 -1.986 -1.986 v -8.372 c 0 -1.097 0.889 -1.986 1.986 -1.986 h 3.655 C 29.562 27.931 30.171 32.022 28.849 36.461 z" style="stroke: none; stroke-width: 1; stroke-dasharray: none; stroke-linecap: butt; stroke-linejoin: miter; stroke-miterlimit: 10; fill: rgb(38,111,183); fill-rule: nonzero; opacity: 1;" transform=" matrix(1 0 0 1 0 0) " stroke-linecap="round" />
	<path d="M 58.716 36.461 h 5.092 c 1.097 0 1.986 -0.889 1.986 -1.986 v -8.372 c 0 -1.097 -0.889 -1.986 -1.986 -1.986 h -3.655 C 56.894 28.232 56.415 32.347 58.716 36.461 z" style="stroke: none; stroke-width: 1; stroke-dasharray: none; stroke-linecap: butt; stroke-linejoin: miter; stroke-miterlimit: 10; fill: rgb(38,111,183); fill-rule: nonzero; opacity: 1;" transform=" matrix(1 0 0 1 0 0) " stroke-linecap="round" />
	<path d="M 78.16 72.219 v -9.208 L 58.848 51.682 c -2.746 -1.071 -4.61 -3.572 -4.61 -6.415 l -0.055 -2.404 H 33.387 l -0.058 2.404 c 0 2.844 -1.864 5.344 -4.61 6.416 L 9.408 63.011 v 9.208 v 10.742 c 0 1.573 1.384 2.848 3.091 2.848 l 15.466 -0.018 l 15.819 -5.776 l 20.221 5.794 h 11.236 c 3.64 0 6.217 -3.559 5.08 -7.017 L 78.16 72.219" style="stroke: none; stroke-width: 1; stroke-dasharray: none; stroke-linecap: butt; stroke-linejoin: miter; stroke-miterlimit: 10; fill: rgb(242,194,178); fill-rule: nonzero; opacity: 1;" transform=" matrix(1 0 0 1 0 0) " stroke-linecap="round" />
	<path d="M 78.088 72.219 h -8.453 c -3.107 0 -5.625 2.321 -5.621 5.184 c 0.005 3.678 0.007 8.028 -0.009 8.406 H 43.784 l -15.376 -5.27 c -3.038 -2.912 -1.489 -1.712 -4.746 -4.747 c -2.095 -1.952 -2.694 -3.573 -5.801 -3.573 H 9.408 v -9.208 c 0 -4.579 3.551 -8.504 8.44 -9.328 l 9.28 -1.563 c 0.556 -0.094 1.089 -0.242 1.591 -0.438 l -0.002 -0.006 c 10.077 9.927 20.121 9.896 30.134 0 l -0.002 0.006 c 0.503 0.196 1.035 0.344 1.591 0.438 l 9.28 1.563 c 4.889 0.823 8.44 4.748 8.44 9.328 v 9.208 L 78.088 72.219 z" style="stroke: none; stroke-width: 1; stroke-dasharray: none; stroke-linecap: butt; stroke-linejoin: miter; stroke-miterlimit: 10; fill: rgb(38,111,183); fill-rule: nonzero; opacity: 1;" transform=" matrix(1 0 0 1 0 0) " stroke-linecap="round" />
	<path d="M 57.448 4.867 L 27.285 20.919 l 0.867 11.651 c 0.295 3.525 1.649 6.993 3.275 10.479 c 0.413 0.955 0.877 1.54 1.807 2.892 c 1.67 2.24 3.727 2.865 6.638 3.84 c 1.541 0.549 2.733 0.524 3.912 0.523 c 1.18 0 2.371 0.025 3.912 -0.523 c 2.911 -0.974 4.968 -1.6 6.638 -3.84 c 0.93 -1.352 1.394 -1.936 1.807 -2.892 c 1.626 -3.485 2.98 -6.954 3.275 -10.479 l 0.867 -11.651 L 57.448 4.867 z" style="stroke: none; stroke-width: 1; stroke-dasharray: none; stroke-linecap: butt; stroke-linejoin: miter; stroke-miterlimit: 10; fill: rgb(250,206,191); fill-rule: nonzero; opacity: 1;" transform=" matrix(1 0 0 1 0 0) " stroke-linecap="round" />
	<path d="M 53.901 44.649 h -6.1 c -0.527 0 -0.953 -0.426 -0.953 -0.953 c 0 -0.527 0.426 -0.953 0.953 -0.953 h 6.1 c 3.463 0 6.28 -2.817 6.28 -6.281 c 0 -0.527 0.426 -0.953 0.953 -0.953 s 0.953 0.427 0.953 0.953 C 62.088 40.975 58.415 44.649 53.901 44.649 z" style="stroke: none; stroke-width: 1; stroke-dasharray: none; stroke-linecap: butt; stroke-linejoin: miter; stroke-miterlimit: 10; fill: rgb(38,111,183); fill-rule: nonzero; opacity: 1;" transform=" matrix(1 0 0 1 0 0) " stroke-linecap="round" />
	<path d="M 32.87 27.023 c 0.908 -1.332 2.493 -2.006 4.089 -2.02 c 0.798 -0.002 1.594 0.178 2.303 0.514 c 0.706 0.346 1.339 0.822 1.786 1.505 c -0.815 0.027 -1.507 -0.033 -2.176 -0.057 c -0.664 -0.034 -1.289 -0.053 -1.914 -0.056 c -0.625 0 -1.25 0.02 -1.914 0.054 C 34.376 26.986 33.684 27.048 32.87 27.023 z" style="stroke: none; stroke-width: 1; stroke-dasharray: none; stroke-linecap: butt; stroke-linejoin: miter; stroke-miterlimit: 10; fill: rgb(220,102,65); fill-rule: nonzero; opacity: 1;" transform=" matrix(1 0 0 1 0 0) " stroke-linecap="round" />
	<path d="M 46.518 27.023 c 0.908 -1.332 2.493 -2.006 4.089 -2.02 c 0.798 -0.002 1.594 0.178 2.303 0.514 c 0.706 0.346 1.339 0.822 1.786 1.505 c -0.815 0.027 -1.507 -0.033 -2.176 -0.057 c -0.664 -0.034 -1.289 -0.053 -1.914 -0.056 c -0.625 0 -1.25 0.02 -1.914 0.054 C 48.024 26.986 47.332 27.048 46.518 27.023 z" style="stroke: none; stroke-width: 1; stroke-dasharray: none; stroke-linecap: butt; stroke-linejoin: miter; stroke-miterlimit: 10; fill: rgb(220,102,65); fill-rule: nonzero; opacity: 1;" transform=" matrix(1 0 0 1 0 0) " stroke-linecap="round" />
	<path d="M 38.09 38.051 c 1.055 0.463 1.994 0.947 2.938 1.276 c 0.937 0.339 1.848 0.531 2.753 0.536 c 0.905 -0.009 1.815 -0.204 2.754 -0.543 c 0.945 -0.33 1.885 -0.81 2.943 -1.268 c -0.506 1.033 -1.275 1.91 -2.244 2.595 c -0.966 0.675 -2.185 1.12 -3.451 1.123 c -1.265 -0.002 -2.486 -0.445 -3.453 -1.121 C 39.362 39.962 38.594 39.084 38.09 38.051 z" style="stroke: none; stroke-width: 1; stroke-dasharray: none; stroke-linecap: butt; stroke-linejoin: miter; stroke-miterlimit: 10; fill: rgb(220,102,65); fill-rule: nonzero; opacity: 1;" transform=" matrix(1 0 0 1 0 0) " stroke-linecap="round" />
	<path d="M 60.72 24.362 C 64.731 6.46 55.2 0 44.004 0 h 0 c -9.729 0 -19.781 7.102 -19.351 21.078 c 13.955 1.254 27.459 -4.055 32.795 -16.211 C 52.111 14.891 56.071 20.788 60.72 24.362 z" style="stroke: none; stroke-width: 1; stroke-dasharray: none; stroke-linecap: butt; stroke-linejoin: miter; stroke-miterlimit: 10; fill: rgb(243,170,0); fill-rule: nonzero; opacity: 1;" transform=" matrix(1 0 0 1 0 0) " stroke-linecap="round" />
	<path d="M 27.823 29.123 c -1.166 -4.405 -1.59 -8.142 -0.567 -10.58 h 2.434 C 28.303 21.334 27.681 24.861 27.823 29.123 z" style="stroke: none; stroke-width: 1; stroke-dasharray: none; stroke-linecap: butt; stroke-linejoin: miter; stroke-miterlimit: 10; fill: rgb(243,170,0); fill-rule: nonzero; opacity: 1;" transform=" matrix(1 0 0 1 0 0) " stroke-linecap="round" />
	<path d="M 59.66 29.295 c 1.166 -4.405 1.79 -8.314 0.768 -10.752 h -2.434 C 59.38 21.334 59.801 25.033 59.66 29.295 z" style="stroke: none; stroke-width: 1; stroke-dasharray: none; stroke-linecap: butt; stroke-linejoin: miter; stroke-miterlimit: 10; fill: rgb(243,170,0); fill-rule: nonzero; opacity: 1;" transform=" matrix(1 0 0 1 0 0) " stroke-linecap="round" />
	<path d="M 62.165 86.146 v 0.572 c 0 1.812 -1.469 3.281 -3.281 3.281 H 28.941 c -1.812 0 -3.281 -1.469 -3.281 -3.281 V 67.487 c 0 -1.812 1.469 -3.281 3.281 -3.281 h 2.386 h 27.557 c 1.812 0 3.281 1.469 3.281 3.281 v 7.445" style="stroke: none; stroke-width: 1; stroke-dasharray: none; stroke-linecap: butt; stroke-linejoin: miter; stroke-miterlimit: 10; fill: rgb(240,240,240); fill-rule: nonzero; opacity: 1;" transform=" matrix(1 0 0 1 0 0) " stroke-linecap="round" />
	<circle cx="35.423" cy="76.973" r="2.923" style="stroke: none; stroke-width: 1; stroke-dasharray: none; stroke-linecap: butt; stroke-linejoin: miter; stroke-miterlimit: 10; fill: rgb(204,204,204); fill-rule: nonzero; opacity: 1;" transform="  matrix(1 0 0 1 0 0) "/>
	<path d="M 62.11 86.146 h -4.205 c -1.5 0 -2.779 -1.087 -3.021 -2.567 l -0.833 -5.092 c -0.305 -1.863 1.133 -3.555 3.021 -3.555 h 5.093 h 0.829 c 0.855 0 1.548 0.693 1.548 1.548 v 8.117 c 0 0.855 -0.693 1.548 -1.548 1.548 H 62.11 z" style="stroke: none; stroke-width: 1; stroke-dasharray: none; stroke-linecap: butt; stroke-linejoin: miter; stroke-miterlimit: 10; fill: rgb(250,206,191); fill-rule: nonzero; opacity: 1;" transform=" matrix(1 0 0 1 0 0) " stroke-linecap="round" />
</g>
</svg>